<svg width="17" height="14" viewBox="0 0 17 14" fill="none" xmlns="http://www.w3.org/2000/svg">
<g id="Group">
<path id="Vector" d="M3.5 3.25H16L14.414 8.8C14.2945 9.21779 14.0422 9.58529 13.6952 9.84691C13.3483 10.1085 12.9255 10.25 12.491 10.25H5.791C5.29846 10.2503 4.82314 10.0688 4.45612 9.74035C4.0891 9.41189 3.85618 8.95955 3.802 8.47L3 1.25H1" stroke="white" stroke-linecap="round" stroke-linejoin="round"/>
<g id="Group_2">
<path id="Vector_2" d="M5.5 13.75C6.05228 13.75 6.5 13.3023 6.5 12.75C6.5 12.1977 6.05228 11.75 5.5 11.75C4.94772 11.75 4.5 12.1977 4.5 12.75C4.5 13.3023 4.94772 13.75 5.5 13.75Z" fill="white"/>
<path id="Vector_3" d="M13.5 13.75C14.0523 13.75 14.5 13.3023 14.5 12.75C14.5 12.1977 14.0523 11.75 13.5 11.75C12.9477 11.75 12.5 12.1977 12.5 12.75C12.5 13.3023 12.9477 13.75 13.5 13.75Z" fill="white"/>
</g>
</g>
</svg>
